<?xml version="1.0" encoding="UTF-8" standalone="no"?>
<!DOCTYPE svg PUBLIC "-//W3C//DTD SVG 1.1//EN" "http://www.w3.org/Graphics/SVG/1.1/DTD/svg11.dtd">
<svg width="100%" height="100%" viewBox="0 0 16 16" version="1.1" xmlns="http://www.w3.org/2000/svg" xmlns:xlink="http://www.w3.org/1999/xlink" xml:space="preserve" xmlns:serif="http://www.serif.com/" style="fill-rule:evenodd;clip-rule:evenodd;stroke-linejoin:round;stroke-miterlimit:2;">
    <path d="M8,2C8.274,2 8.5,2.226 8.5,2.5L8.5,7.5L13.5,7.5C13.774,7.5 14,7.726 14,8C14,8.274 13.774,8.5 13.5,8.5L8.5,8.5L8.5,13.5C8.5,13.774 8.274,14 8,14C7.726,14 7.5,13.774 7.5,13.5L7.5,8.5L2.5,8.5C2.226,8.5 2,8.274 2,8C2,7.726 2.226,7.5 2.5,7.5L7.5,7.5L7.5,2.5C7.5,2.226 7.726,2 8,2" style="fill:rgb(0,255,0);"/>
</svg>
