<?xml version="1.0" encoding="UTF-8" standalone="no"?>
<!DOCTYPE svg PUBLIC "-//W3C//DTD SVG 1.1//EN" "http://www.w3.org/Graphics/SVG/1.1/DTD/svg11.dtd">
<svg width="100%" height="100%" viewBox="0 0 16 16" version="1.1" xmlns="http://www.w3.org/2000/svg" xmlns:xlink="http://www.w3.org/1999/xlink" xml:space="preserve" xmlns:serif="http://www.serif.com/" style="fill-rule:evenodd;clip-rule:evenodd;stroke-linejoin:round;stroke-miterlimit:2;">
    <path d="M6,12.5C6,12.774 6.226,13 6.5,13L14.5,13C14.774,13 15,12.774 15,12.5L15,3.5C15,3.226 14.774,3 14.5,3L6.5,3C6.226,3 6,3.226 6,3.5L6,5.5C6,5.774 5.774,6 5.5,6C5.226,6 5,5.774 5,5.5L5,3.5C5,2.677 5.677,2 6.5,2L14.5,2C15.323,2 16,2.677 16,3.5L16,12.5C16,13.323 15.323,14 14.5,14L6.5,14C5.677,14 5,13.323 5,12.5L5,10.5C5,10.226 5.226,10 5.5,10C5.774,10 6,10.226 6,10.5L6,12.5Z" style="fill:white;"/>
    <path d="M0.146,8.354C0.052,8.26 -0.001,8.133 -0.001,8C-0.001,7.867 0.052,7.74 0.146,7.646L3.146,4.646C3.24,4.552 3.367,4.499 3.5,4.499C3.775,4.499 4.001,4.725 4.001,5C4.001,5.133 3.948,5.26 3.854,5.354L1.707,7.5L10.5,7.5C10.774,7.5 11,7.726 11,8C11,8.274 10.774,8.5 10.5,8.5L1.707,8.5L3.854,10.646C3.948,10.74 4.001,10.867 4.001,11C4.001,11.275 3.775,11.501 3.5,11.501C3.367,11.501 3.24,11.448 3.146,11.354L0.146,8.354Z" style="fill:white;"/>
</svg>
