<?xml version="1.0" encoding="UTF-8" standalone="no"?>
<!DOCTYPE svg PUBLIC "-//W3C//DTD SVG 1.1//EN" "http://www.w3.org/Graphics/SVG/1.1/DTD/svg11.dtd">
<svg width="100%" height="100%" viewBox="0 0 16 16" version="1.1" xmlns="http://www.w3.org/2000/svg" xmlns:xlink="http://www.w3.org/1999/xlink" xml:space="preserve" xmlns:serif="http://www.serif.com/" style="fill-rule:evenodd;clip-rule:evenodd;stroke-linejoin:round;stroke-miterlimit:2;">
    <path d="M1.5,1C1.226,1 1,1.226 1,1.5L1,4.5C1,4.774 0.774,5 0.5,5C0.226,5 0,4.774 0,4.5L0,1.5C-0,0.677 0.677,0 1.5,0L4.5,0C4.774,-0 5,0.226 5,0.5C5,0.774 4.774,1 4.5,1L1.5,1ZM11,0.5C11,0.226 11.226,0 11.5,0L14.5,0C15.323,-0 16,0.677 16,1.5L16,4.5C16,4.774 15.774,5 15.5,5C15.226,5 15,4.774 15,4.5L15,1.5C15,1.226 14.774,1 14.5,1L11.5,1C11.226,1 11,0.774 11,0.5M0.5,11C0.774,11 1,11.226 1,11.5L1,14.5C1,14.774 1.226,15 1.5,15L4.5,15C4.774,15 5,15.226 5,15.5C5,15.774 4.774,16 4.5,16L1.5,16C0.677,16 0,15.323 0,14.5L0,11.5C-0,11.226 0.226,11 0.5,11M15.5,11C15.774,11 16,11.226 16,11.5L16,14.5C16,15.323 15.323,16 14.5,16L11.5,16C11.226,16 11,15.774 11,15.5C11,15.226 11.226,15 11.5,15L14.5,15C14.774,15 15,14.774 15,14.5L15,11.5C15,11.226 15.226,11 15.5,11" style="fill:white;fill-rule:nonzero;"/>
    <path d="M3,14C3,14 2,14 2,13C2,12 3,9 8,9C13,9 14,12 14,13C14,14 13,14 13,14L3,14ZM11,5C11,6.646 9.646,8 8,8C6.354,8 5,6.646 5,5C5,3.354 6.354,2 8,2C9.646,2 11,3.354 11,5" style="fill:white;fill-rule:nonzero;"/>
</svg>
